%
M48
M72
T01C0.0236
T02C0.0276
T03C0.0394
T04C0.0400
T05C0.1260
%
T01
X12000Y10500
X13000Y12500
X11500Y13000
X15000Y12000
X18550Y10150
X20500Y10500
X20500Y9150
T02
X4217Y10106
X4217Y10894
T03
X21500Y11250
X22500Y10750
X21500Y10250
X22500Y9750
X21500Y9250
X22500Y8750
X21500Y8250
X22500Y7750
T04
X4500Y4500
X5500Y4500
X6500Y4500
X7500Y4500
X8500Y4500
X9500Y4500
X10500Y4500
X11500Y4500
X13000Y4500
X14000Y4500
X15000Y4500
X16000Y4500
X17000Y4500
X18000Y4500
X19000Y4500
X20000Y4500
X21000Y4500
X22000Y4500
X18000Y14000
X17000Y14000
X16000Y14000
X15000Y14000
X14000Y14000
X13000Y14000
X12000Y14000
X11000Y14000
X10000Y14000
X9000Y14000
X8000Y14000
X7000Y14000
X6000Y14000
X5000Y14000
X4000Y14000
X4000Y20000
X5000Y20000
X6000Y20000
X7000Y20000
X8000Y20000
X9000Y20000
X10000Y20000
X11000Y20000
X12000Y20000
X13000Y20000
X14000Y20000
X15000Y20000
X16000Y20000
X17000Y20000
X18000Y20000
X17500Y23500
X16500Y23500
X15500Y23500
X14500Y23500
X13500Y23500
X12500Y23500
X11500Y23500
X9500Y23500
X8500Y23500
X7500Y23500
X6500Y23500
X5500Y23500
X4500Y23500
X18500Y23500
T05
X25000Y11750
X25000Y7250
M30
