G75*
%MOIN*%
%OFA0B0*%
%FSLAX25Y25*%
%IPPOS*%
%LPD*%
%AMOC8*
5,1,8,0,0,1.08239X$1,22.5*
%
%ADD10C,0.00000*%
%ADD11C,0.00400*%
%ADD12C,0.01500*%
%ADD13C,0.00100*%
%ADD14C,0.00800*%
%ADD15C,0.00500*%
%ADD16C,0.00600*%
%ADD17C,0.01000*%
D10*
X0025000Y0035000D02*
X0025000Y0245000D01*
X0265000Y0245000D01*
X0265000Y0035000D01*
X0025000Y0035000D01*
X0243701Y0072500D02*
X0243703Y0072658D01*
X0243709Y0072816D01*
X0243719Y0072974D01*
X0243733Y0073132D01*
X0243751Y0073289D01*
X0243772Y0073446D01*
X0243798Y0073602D01*
X0243828Y0073758D01*
X0243861Y0073913D01*
X0243899Y0074066D01*
X0243940Y0074219D01*
X0243985Y0074371D01*
X0244034Y0074522D01*
X0244087Y0074671D01*
X0244143Y0074819D01*
X0244203Y0074965D01*
X0244267Y0075110D01*
X0244335Y0075253D01*
X0244406Y0075395D01*
X0244480Y0075535D01*
X0244558Y0075672D01*
X0244640Y0075808D01*
X0244724Y0075942D01*
X0244813Y0076073D01*
X0244904Y0076202D01*
X0244999Y0076329D01*
X0245096Y0076454D01*
X0245197Y0076576D01*
X0245301Y0076695D01*
X0245408Y0076812D01*
X0245518Y0076926D01*
X0245631Y0077037D01*
X0245746Y0077146D01*
X0245864Y0077251D01*
X0245985Y0077353D01*
X0246108Y0077453D01*
X0246234Y0077549D01*
X0246362Y0077642D01*
X0246492Y0077732D01*
X0246625Y0077818D01*
X0246760Y0077902D01*
X0246896Y0077981D01*
X0247035Y0078058D01*
X0247176Y0078130D01*
X0247318Y0078200D01*
X0247462Y0078265D01*
X0247608Y0078327D01*
X0247755Y0078385D01*
X0247904Y0078440D01*
X0248054Y0078491D01*
X0248205Y0078538D01*
X0248357Y0078581D01*
X0248510Y0078620D01*
X0248665Y0078656D01*
X0248820Y0078687D01*
X0248976Y0078715D01*
X0249132Y0078739D01*
X0249289Y0078759D01*
X0249447Y0078775D01*
X0249604Y0078787D01*
X0249763Y0078795D01*
X0249921Y0078799D01*
X0250079Y0078799D01*
X0250237Y0078795D01*
X0250396Y0078787D01*
X0250553Y0078775D01*
X0250711Y0078759D01*
X0250868Y0078739D01*
X0251024Y0078715D01*
X0251180Y0078687D01*
X0251335Y0078656D01*
X0251490Y0078620D01*
X0251643Y0078581D01*
X0251795Y0078538D01*
X0251946Y0078491D01*
X0252096Y0078440D01*
X0252245Y0078385D01*
X0252392Y0078327D01*
X0252538Y0078265D01*
X0252682Y0078200D01*
X0252824Y0078130D01*
X0252965Y0078058D01*
X0253104Y0077981D01*
X0253240Y0077902D01*
X0253375Y0077818D01*
X0253508Y0077732D01*
X0253638Y0077642D01*
X0253766Y0077549D01*
X0253892Y0077453D01*
X0254015Y0077353D01*
X0254136Y0077251D01*
X0254254Y0077146D01*
X0254369Y0077037D01*
X0254482Y0076926D01*
X0254592Y0076812D01*
X0254699Y0076695D01*
X0254803Y0076576D01*
X0254904Y0076454D01*
X0255001Y0076329D01*
X0255096Y0076202D01*
X0255187Y0076073D01*
X0255276Y0075942D01*
X0255360Y0075808D01*
X0255442Y0075672D01*
X0255520Y0075535D01*
X0255594Y0075395D01*
X0255665Y0075253D01*
X0255733Y0075110D01*
X0255797Y0074965D01*
X0255857Y0074819D01*
X0255913Y0074671D01*
X0255966Y0074522D01*
X0256015Y0074371D01*
X0256060Y0074219D01*
X0256101Y0074066D01*
X0256139Y0073913D01*
X0256172Y0073758D01*
X0256202Y0073602D01*
X0256228Y0073446D01*
X0256249Y0073289D01*
X0256267Y0073132D01*
X0256281Y0072974D01*
X0256291Y0072816D01*
X0256297Y0072658D01*
X0256299Y0072500D01*
X0256297Y0072342D01*
X0256291Y0072184D01*
X0256281Y0072026D01*
X0256267Y0071868D01*
X0256249Y0071711D01*
X0256228Y0071554D01*
X0256202Y0071398D01*
X0256172Y0071242D01*
X0256139Y0071087D01*
X0256101Y0070934D01*
X0256060Y0070781D01*
X0256015Y0070629D01*
X0255966Y0070478D01*
X0255913Y0070329D01*
X0255857Y0070181D01*
X0255797Y0070035D01*
X0255733Y0069890D01*
X0255665Y0069747D01*
X0255594Y0069605D01*
X0255520Y0069465D01*
X0255442Y0069328D01*
X0255360Y0069192D01*
X0255276Y0069058D01*
X0255187Y0068927D01*
X0255096Y0068798D01*
X0255001Y0068671D01*
X0254904Y0068546D01*
X0254803Y0068424D01*
X0254699Y0068305D01*
X0254592Y0068188D01*
X0254482Y0068074D01*
X0254369Y0067963D01*
X0254254Y0067854D01*
X0254136Y0067749D01*
X0254015Y0067647D01*
X0253892Y0067547D01*
X0253766Y0067451D01*
X0253638Y0067358D01*
X0253508Y0067268D01*
X0253375Y0067182D01*
X0253240Y0067098D01*
X0253104Y0067019D01*
X0252965Y0066942D01*
X0252824Y0066870D01*
X0252682Y0066800D01*
X0252538Y0066735D01*
X0252392Y0066673D01*
X0252245Y0066615D01*
X0252096Y0066560D01*
X0251946Y0066509D01*
X0251795Y0066462D01*
X0251643Y0066419D01*
X0251490Y0066380D01*
X0251335Y0066344D01*
X0251180Y0066313D01*
X0251024Y0066285D01*
X0250868Y0066261D01*
X0250711Y0066241D01*
X0250553Y0066225D01*
X0250396Y0066213D01*
X0250237Y0066205D01*
X0250079Y0066201D01*
X0249921Y0066201D01*
X0249763Y0066205D01*
X0249604Y0066213D01*
X0249447Y0066225D01*
X0249289Y0066241D01*
X0249132Y0066261D01*
X0248976Y0066285D01*
X0248820Y0066313D01*
X0248665Y0066344D01*
X0248510Y0066380D01*
X0248357Y0066419D01*
X0248205Y0066462D01*
X0248054Y0066509D01*
X0247904Y0066560D01*
X0247755Y0066615D01*
X0247608Y0066673D01*
X0247462Y0066735D01*
X0247318Y0066800D01*
X0247176Y0066870D01*
X0247035Y0066942D01*
X0246896Y0067019D01*
X0246760Y0067098D01*
X0246625Y0067182D01*
X0246492Y0067268D01*
X0246362Y0067358D01*
X0246234Y0067451D01*
X0246108Y0067547D01*
X0245985Y0067647D01*
X0245864Y0067749D01*
X0245746Y0067854D01*
X0245631Y0067963D01*
X0245518Y0068074D01*
X0245408Y0068188D01*
X0245301Y0068305D01*
X0245197Y0068424D01*
X0245096Y0068546D01*
X0244999Y0068671D01*
X0244904Y0068798D01*
X0244813Y0068927D01*
X0244724Y0069058D01*
X0244640Y0069192D01*
X0244558Y0069328D01*
X0244480Y0069465D01*
X0244406Y0069605D01*
X0244335Y0069747D01*
X0244267Y0069890D01*
X0244203Y0070035D01*
X0244143Y0070181D01*
X0244087Y0070329D01*
X0244034Y0070478D01*
X0243985Y0070629D01*
X0243940Y0070781D01*
X0243899Y0070934D01*
X0243861Y0071087D01*
X0243828Y0071242D01*
X0243798Y0071398D01*
X0243772Y0071554D01*
X0243751Y0071711D01*
X0243733Y0071868D01*
X0243719Y0072026D01*
X0243709Y0072184D01*
X0243703Y0072342D01*
X0243701Y0072500D01*
X0243701Y0117500D02*
X0243703Y0117658D01*
X0243709Y0117816D01*
X0243719Y0117974D01*
X0243733Y0118132D01*
X0243751Y0118289D01*
X0243772Y0118446D01*
X0243798Y0118602D01*
X0243828Y0118758D01*
X0243861Y0118913D01*
X0243899Y0119066D01*
X0243940Y0119219D01*
X0243985Y0119371D01*
X0244034Y0119522D01*
X0244087Y0119671D01*
X0244143Y0119819D01*
X0244203Y0119965D01*
X0244267Y0120110D01*
X0244335Y0120253D01*
X0244406Y0120395D01*
X0244480Y0120535D01*
X0244558Y0120672D01*
X0244640Y0120808D01*
X0244724Y0120942D01*
X0244813Y0121073D01*
X0244904Y0121202D01*
X0244999Y0121329D01*
X0245096Y0121454D01*
X0245197Y0121576D01*
X0245301Y0121695D01*
X0245408Y0121812D01*
X0245518Y0121926D01*
X0245631Y0122037D01*
X0245746Y0122146D01*
X0245864Y0122251D01*
X0245985Y0122353D01*
X0246108Y0122453D01*
X0246234Y0122549D01*
X0246362Y0122642D01*
X0246492Y0122732D01*
X0246625Y0122818D01*
X0246760Y0122902D01*
X0246896Y0122981D01*
X0247035Y0123058D01*
X0247176Y0123130D01*
X0247318Y0123200D01*
X0247462Y0123265D01*
X0247608Y0123327D01*
X0247755Y0123385D01*
X0247904Y0123440D01*
X0248054Y0123491D01*
X0248205Y0123538D01*
X0248357Y0123581D01*
X0248510Y0123620D01*
X0248665Y0123656D01*
X0248820Y0123687D01*
X0248976Y0123715D01*
X0249132Y0123739D01*
X0249289Y0123759D01*
X0249447Y0123775D01*
X0249604Y0123787D01*
X0249763Y0123795D01*
X0249921Y0123799D01*
X0250079Y0123799D01*
X0250237Y0123795D01*
X0250396Y0123787D01*
X0250553Y0123775D01*
X0250711Y0123759D01*
X0250868Y0123739D01*
X0251024Y0123715D01*
X0251180Y0123687D01*
X0251335Y0123656D01*
X0251490Y0123620D01*
X0251643Y0123581D01*
X0251795Y0123538D01*
X0251946Y0123491D01*
X0252096Y0123440D01*
X0252245Y0123385D01*
X0252392Y0123327D01*
X0252538Y0123265D01*
X0252682Y0123200D01*
X0252824Y0123130D01*
X0252965Y0123058D01*
X0253104Y0122981D01*
X0253240Y0122902D01*
X0253375Y0122818D01*
X0253508Y0122732D01*
X0253638Y0122642D01*
X0253766Y0122549D01*
X0253892Y0122453D01*
X0254015Y0122353D01*
X0254136Y0122251D01*
X0254254Y0122146D01*
X0254369Y0122037D01*
X0254482Y0121926D01*
X0254592Y0121812D01*
X0254699Y0121695D01*
X0254803Y0121576D01*
X0254904Y0121454D01*
X0255001Y0121329D01*
X0255096Y0121202D01*
X0255187Y0121073D01*
X0255276Y0120942D01*
X0255360Y0120808D01*
X0255442Y0120672D01*
X0255520Y0120535D01*
X0255594Y0120395D01*
X0255665Y0120253D01*
X0255733Y0120110D01*
X0255797Y0119965D01*
X0255857Y0119819D01*
X0255913Y0119671D01*
X0255966Y0119522D01*
X0256015Y0119371D01*
X0256060Y0119219D01*
X0256101Y0119066D01*
X0256139Y0118913D01*
X0256172Y0118758D01*
X0256202Y0118602D01*
X0256228Y0118446D01*
X0256249Y0118289D01*
X0256267Y0118132D01*
X0256281Y0117974D01*
X0256291Y0117816D01*
X0256297Y0117658D01*
X0256299Y0117500D01*
X0256297Y0117342D01*
X0256291Y0117184D01*
X0256281Y0117026D01*
X0256267Y0116868D01*
X0256249Y0116711D01*
X0256228Y0116554D01*
X0256202Y0116398D01*
X0256172Y0116242D01*
X0256139Y0116087D01*
X0256101Y0115934D01*
X0256060Y0115781D01*
X0256015Y0115629D01*
X0255966Y0115478D01*
X0255913Y0115329D01*
X0255857Y0115181D01*
X0255797Y0115035D01*
X0255733Y0114890D01*
X0255665Y0114747D01*
X0255594Y0114605D01*
X0255520Y0114465D01*
X0255442Y0114328D01*
X0255360Y0114192D01*
X0255276Y0114058D01*
X0255187Y0113927D01*
X0255096Y0113798D01*
X0255001Y0113671D01*
X0254904Y0113546D01*
X0254803Y0113424D01*
X0254699Y0113305D01*
X0254592Y0113188D01*
X0254482Y0113074D01*
X0254369Y0112963D01*
X0254254Y0112854D01*
X0254136Y0112749D01*
X0254015Y0112647D01*
X0253892Y0112547D01*
X0253766Y0112451D01*
X0253638Y0112358D01*
X0253508Y0112268D01*
X0253375Y0112182D01*
X0253240Y0112098D01*
X0253104Y0112019D01*
X0252965Y0111942D01*
X0252824Y0111870D01*
X0252682Y0111800D01*
X0252538Y0111735D01*
X0252392Y0111673D01*
X0252245Y0111615D01*
X0252096Y0111560D01*
X0251946Y0111509D01*
X0251795Y0111462D01*
X0251643Y0111419D01*
X0251490Y0111380D01*
X0251335Y0111344D01*
X0251180Y0111313D01*
X0251024Y0111285D01*
X0250868Y0111261D01*
X0250711Y0111241D01*
X0250553Y0111225D01*
X0250396Y0111213D01*
X0250237Y0111205D01*
X0250079Y0111201D01*
X0249921Y0111201D01*
X0249763Y0111205D01*
X0249604Y0111213D01*
X0249447Y0111225D01*
X0249289Y0111241D01*
X0249132Y0111261D01*
X0248976Y0111285D01*
X0248820Y0111313D01*
X0248665Y0111344D01*
X0248510Y0111380D01*
X0248357Y0111419D01*
X0248205Y0111462D01*
X0248054Y0111509D01*
X0247904Y0111560D01*
X0247755Y0111615D01*
X0247608Y0111673D01*
X0247462Y0111735D01*
X0247318Y0111800D01*
X0247176Y0111870D01*
X0247035Y0111942D01*
X0246896Y0112019D01*
X0246760Y0112098D01*
X0246625Y0112182D01*
X0246492Y0112268D01*
X0246362Y0112358D01*
X0246234Y0112451D01*
X0246108Y0112547D01*
X0245985Y0112647D01*
X0245864Y0112749D01*
X0245746Y0112854D01*
X0245631Y0112963D01*
X0245518Y0113074D01*
X0245408Y0113188D01*
X0245301Y0113305D01*
X0245197Y0113424D01*
X0245096Y0113546D01*
X0244999Y0113671D01*
X0244904Y0113798D01*
X0244813Y0113927D01*
X0244724Y0114058D01*
X0244640Y0114192D01*
X0244558Y0114328D01*
X0244480Y0114465D01*
X0244406Y0114605D01*
X0244335Y0114747D01*
X0244267Y0114890D01*
X0244203Y0115035D01*
X0244143Y0115181D01*
X0244087Y0115329D01*
X0244034Y0115478D01*
X0243985Y0115629D01*
X0243940Y0115781D01*
X0243899Y0115934D01*
X0243861Y0116087D01*
X0243828Y0116242D01*
X0243798Y0116398D01*
X0243772Y0116554D01*
X0243751Y0116711D01*
X0243733Y0116868D01*
X0243719Y0117026D01*
X0243709Y0117184D01*
X0243703Y0117342D01*
X0243701Y0117500D01*
D11*
X0238373Y0172700D02*
X0235304Y0172700D01*
X0236839Y0172700D02*
X0236839Y0177304D01*
X0235304Y0175769D01*
X0233769Y0175002D02*
X0233769Y0176537D01*
X0233002Y0177304D01*
X0230700Y0177304D01*
X0230700Y0172700D01*
X0230700Y0174235D02*
X0233002Y0174235D01*
X0233769Y0175002D01*
X0232235Y0174235D02*
X0233769Y0172700D01*
X0233769Y0182700D02*
X0232235Y0184235D01*
X0233002Y0184235D02*
X0230700Y0184235D01*
X0230700Y0182700D02*
X0230700Y0187304D01*
X0233002Y0187304D01*
X0233769Y0186537D01*
X0233769Y0185002D01*
X0233002Y0184235D01*
X0235304Y0182700D02*
X0238373Y0185769D01*
X0238373Y0186537D01*
X0237606Y0187304D01*
X0236071Y0187304D01*
X0235304Y0186537D01*
X0235304Y0182700D02*
X0238373Y0182700D01*
X0237606Y0192700D02*
X0236071Y0192700D01*
X0235304Y0193467D01*
X0233769Y0192700D02*
X0232235Y0194235D01*
X0233002Y0194235D02*
X0230700Y0194235D01*
X0230700Y0192700D02*
X0230700Y0197304D01*
X0233002Y0197304D01*
X0233769Y0196537D01*
X0233769Y0195002D01*
X0233002Y0194235D01*
X0235304Y0196537D02*
X0236071Y0197304D01*
X0237606Y0197304D01*
X0238373Y0196537D01*
X0238373Y0195769D01*
X0237606Y0195002D01*
X0238373Y0194235D01*
X0238373Y0193467D01*
X0237606Y0192700D01*
X0237606Y0195002D02*
X0236839Y0195002D01*
X0164561Y0088404D02*
X0164561Y0084935D01*
X0162826Y0083200D01*
X0161091Y0084935D01*
X0161091Y0088404D01*
X0159404Y0087537D02*
X0159404Y0086670D01*
X0158537Y0085802D01*
X0159404Y0084935D01*
X0159404Y0084067D01*
X0158537Y0083200D01*
X0156802Y0083200D01*
X0155935Y0084067D01*
X0154224Y0084067D02*
X0154224Y0083200D01*
X0153356Y0083200D01*
X0153356Y0084067D01*
X0154224Y0084067D01*
X0151670Y0084067D02*
X0150802Y0083200D01*
X0149067Y0083200D01*
X0148200Y0084067D01*
X0149935Y0085802D02*
X0150802Y0085802D01*
X0151670Y0084935D01*
X0151670Y0084067D01*
X0150802Y0085802D02*
X0151670Y0086670D01*
X0151670Y0087537D01*
X0150802Y0088404D01*
X0149067Y0088404D01*
X0148200Y0087537D01*
X0143982Y0088404D02*
X0143982Y0084935D01*
X0142248Y0083200D01*
X0140513Y0084935D01*
X0140513Y0088404D01*
X0138826Y0087537D02*
X0137959Y0088404D01*
X0136224Y0088404D01*
X0135356Y0087537D01*
X0135356Y0086670D01*
X0136224Y0085802D01*
X0138826Y0085802D01*
X0138826Y0084067D02*
X0138826Y0087537D01*
X0138826Y0084067D02*
X0137959Y0083200D01*
X0136224Y0083200D01*
X0135356Y0084067D01*
X0133670Y0085802D02*
X0130200Y0085802D01*
X0131935Y0087537D02*
X0131935Y0084067D01*
X0155935Y0087537D02*
X0156802Y0088404D01*
X0158537Y0088404D01*
X0159404Y0087537D01*
X0158537Y0085802D02*
X0157669Y0085802D01*
X0159398Y0062304D02*
X0157096Y0060002D01*
X0160165Y0060002D01*
X0159398Y0057700D02*
X0159398Y0062304D01*
X0155561Y0061537D02*
X0155561Y0060002D01*
X0154794Y0059235D01*
X0152492Y0059235D01*
X0154027Y0059235D02*
X0155561Y0057700D01*
X0152492Y0057700D02*
X0152492Y0062304D01*
X0154794Y0062304D01*
X0155561Y0061537D01*
X0140165Y0061304D02*
X0137096Y0061304D01*
X0137096Y0059002D01*
X0138631Y0059769D01*
X0139398Y0059769D01*
X0140165Y0059002D01*
X0140165Y0057467D01*
X0139398Y0056700D01*
X0137863Y0056700D01*
X0137096Y0057467D01*
X0135561Y0056700D02*
X0134027Y0058235D01*
X0134794Y0058235D02*
X0132492Y0058235D01*
X0132492Y0056700D02*
X0132492Y0061304D01*
X0134794Y0061304D01*
X0135561Y0060537D01*
X0135561Y0059002D01*
X0134794Y0058235D01*
D12*
X0110110Y0105000D02*
X0109890Y0105000D01*
X0075110Y0105000D02*
X0074890Y0105000D01*
D13*
X0072050Y0105131D02*
X0070549Y0105131D01*
X0071049Y0104630D01*
X0071800Y0104144D02*
X0072050Y0104144D01*
X0072050Y0103894D01*
X0071800Y0103894D01*
X0071800Y0104144D01*
X0072050Y0104630D02*
X0072050Y0105631D01*
X0071800Y0106103D02*
X0072050Y0106354D01*
X0072050Y0107104D01*
X0071049Y0107104D01*
X0071299Y0107577D02*
X0071299Y0108077D01*
X0070549Y0107577D02*
X0072050Y0107577D01*
X0071800Y0106103D02*
X0071049Y0106103D01*
X0070549Y0107577D02*
X0070549Y0108578D01*
X0070799Y0103421D02*
X0071800Y0102420D01*
X0072050Y0102671D01*
X0072050Y0103171D01*
X0071800Y0103421D01*
X0070799Y0103421D01*
X0070549Y0103171D01*
X0070549Y0102671D01*
X0070799Y0102420D01*
X0071800Y0102420D01*
X0078049Y0105854D02*
X0078049Y0106354D01*
X0078299Y0106604D01*
X0078549Y0107077D02*
X0078049Y0107577D01*
X0079550Y0107577D01*
X0079550Y0107077D02*
X0079550Y0108078D01*
X0079300Y0106604D02*
X0079550Y0106354D01*
X0079550Y0105854D01*
X0079300Y0105603D01*
X0078299Y0105603D01*
X0078049Y0105854D01*
X0094299Y0106104D02*
X0094549Y0105853D01*
X0094299Y0106104D02*
X0094299Y0106604D01*
X0094549Y0106854D01*
X0094799Y0106854D01*
X0095049Y0106604D01*
X0095300Y0106854D01*
X0095550Y0106854D01*
X0095800Y0106604D01*
X0095800Y0106104D01*
X0095550Y0105853D01*
X0095550Y0105367D02*
X0095800Y0105367D01*
X0095800Y0105117D01*
X0095550Y0105117D01*
X0095550Y0105367D01*
X0095550Y0104644D02*
X0095800Y0104394D01*
X0095800Y0103894D01*
X0095550Y0103644D01*
X0095049Y0104144D02*
X0095049Y0104394D01*
X0095300Y0104644D01*
X0095550Y0104644D01*
X0095049Y0104394D02*
X0094799Y0104644D01*
X0094549Y0104644D01*
X0094299Y0104394D01*
X0094299Y0103894D01*
X0094549Y0103644D01*
X0094549Y0101698D02*
X0094299Y0101448D01*
X0094299Y0100947D01*
X0094549Y0100697D01*
X0094799Y0100697D01*
X0095049Y0100947D01*
X0095049Y0101698D01*
X0094549Y0101698D02*
X0095550Y0101698D01*
X0095800Y0101448D01*
X0095800Y0100947D01*
X0095550Y0100697D01*
X0095800Y0100225D02*
X0095800Y0099224D01*
X0095800Y0098751D02*
X0095800Y0097751D01*
X0094799Y0098751D01*
X0094549Y0098751D01*
X0094299Y0098501D01*
X0094299Y0098001D01*
X0094549Y0097751D01*
X0094299Y0097278D02*
X0094299Y0096277D01*
X0095049Y0096277D01*
X0094799Y0096778D01*
X0094799Y0097028D01*
X0095049Y0097278D01*
X0095550Y0097278D01*
X0095800Y0097028D01*
X0095800Y0096527D01*
X0095550Y0096277D01*
X0095550Y0095805D02*
X0095800Y0095555D01*
X0095800Y0095054D01*
X0095550Y0094804D01*
X0094549Y0094804D01*
X0094299Y0095054D01*
X0094299Y0095555D01*
X0094549Y0095805D01*
X0094299Y0094322D02*
X0094299Y0093822D01*
X0094299Y0094072D02*
X0095800Y0094072D01*
X0095800Y0093822D02*
X0095800Y0094322D01*
X0095800Y0093349D02*
X0094299Y0093349D01*
X0094799Y0092849D01*
X0094299Y0092349D01*
X0095800Y0092349D01*
X0094799Y0099224D02*
X0094299Y0099724D01*
X0095800Y0099724D01*
X0095049Y0106354D02*
X0095049Y0106604D01*
X0095300Y0107327D02*
X0095800Y0107827D01*
X0095300Y0108328D01*
X0094299Y0108328D01*
X0094299Y0107327D02*
X0095300Y0107327D01*
X0103549Y0107577D02*
X0105050Y0107577D01*
X0105549Y0107577D02*
X0105549Y0108578D01*
X0105050Y0108078D02*
X0105050Y0107077D01*
X0104800Y0106604D02*
X0103549Y0106604D01*
X0104049Y0107077D02*
X0103549Y0107577D01*
X0104800Y0106604D02*
X0105050Y0106354D01*
X0105050Y0105854D01*
X0104800Y0105603D01*
X0103549Y0105603D01*
X0105549Y0105131D02*
X0107050Y0105131D01*
X0107050Y0105631D02*
X0107050Y0104630D01*
X0107050Y0104144D02*
X0107050Y0103894D01*
X0106800Y0103894D01*
X0106800Y0104144D01*
X0107050Y0104144D01*
X0106800Y0103421D02*
X0105799Y0103421D01*
X0106800Y0102420D01*
X0107050Y0102671D01*
X0107050Y0103171D01*
X0106800Y0103421D01*
X0106800Y0102420D02*
X0105799Y0102420D01*
X0105549Y0102671D01*
X0105549Y0103171D01*
X0105799Y0103421D01*
X0106049Y0104630D02*
X0105549Y0105131D01*
X0106049Y0106103D02*
X0106800Y0106103D01*
X0107050Y0106354D01*
X0107050Y0107104D01*
X0106049Y0107104D01*
X0106299Y0107577D02*
X0106299Y0108077D01*
X0105549Y0107577D02*
X0107050Y0107577D01*
X0113049Y0107327D02*
X0113299Y0107077D01*
X0113049Y0107327D02*
X0113049Y0107827D01*
X0113299Y0108078D01*
X0113549Y0108078D01*
X0114550Y0107077D01*
X0114550Y0108078D01*
X0114300Y0106604D02*
X0114550Y0106354D01*
X0114550Y0105854D01*
X0114300Y0105603D01*
X0113299Y0105603D01*
X0113049Y0105854D01*
X0113049Y0106354D01*
X0113299Y0106604D01*
X0140799Y0077577D02*
X0142300Y0077577D01*
X0142300Y0077077D02*
X0142300Y0078078D01*
X0141299Y0077077D02*
X0140799Y0077577D01*
X0141049Y0076604D02*
X0140799Y0076354D01*
X0140799Y0075603D01*
X0142300Y0075603D01*
X0142300Y0076354D01*
X0142050Y0076604D01*
X0141049Y0076604D01*
X0157799Y0076603D02*
X0157799Y0077354D01*
X0158049Y0077604D01*
X0159050Y0077604D01*
X0159300Y0077354D01*
X0159300Y0076603D01*
X0157799Y0076603D01*
X0158049Y0078077D02*
X0157799Y0078327D01*
X0157799Y0078827D01*
X0158049Y0079078D01*
X0158299Y0079078D01*
X0159300Y0078077D01*
X0159300Y0079078D01*
X0210550Y0172800D02*
X0211301Y0172800D01*
X0211551Y0173050D01*
X0211551Y0174051D01*
X0211301Y0174301D01*
X0210550Y0174301D01*
X0210550Y0172800D01*
X0212023Y0173050D02*
X0212273Y0172800D01*
X0212774Y0172800D01*
X0213024Y0173050D01*
X0213024Y0173300D01*
X0212774Y0173551D01*
X0212524Y0173551D01*
X0212774Y0173551D02*
X0213024Y0173801D01*
X0213024Y0174051D01*
X0212774Y0174301D01*
X0212273Y0174301D01*
X0212023Y0174051D01*
X0211301Y0182800D02*
X0211551Y0183050D01*
X0211551Y0184051D01*
X0211301Y0184301D01*
X0210550Y0184301D01*
X0210550Y0182800D01*
X0211301Y0182800D01*
X0212023Y0183551D02*
X0213024Y0183551D01*
X0212774Y0184301D02*
X0212023Y0183551D01*
X0212774Y0184301D02*
X0212774Y0182800D01*
X0212774Y0192800D02*
X0212273Y0192800D01*
X0212023Y0193050D01*
X0211551Y0193050D02*
X0211551Y0194051D01*
X0211301Y0194301D01*
X0210550Y0194301D01*
X0210550Y0192800D01*
X0211301Y0192800D01*
X0211551Y0193050D01*
X0212023Y0193551D02*
X0212524Y0193801D01*
X0212774Y0193801D01*
X0213024Y0193551D01*
X0213024Y0193050D01*
X0212774Y0192800D01*
X0212023Y0193551D02*
X0212023Y0194301D01*
X0213024Y0194301D01*
X0028139Y0102159D02*
X0026638Y0102159D01*
X0026638Y0101659D02*
X0026638Y0102660D01*
X0026638Y0101186D02*
X0026638Y0100185D01*
X0026638Y0100686D02*
X0028139Y0100686D01*
X0028139Y0099713D02*
X0027138Y0099713D01*
X0026638Y0099213D01*
X0027138Y0098712D01*
X0028139Y0098712D01*
X0027889Y0098240D02*
X0028139Y0097990D01*
X0028139Y0097239D01*
X0026638Y0097239D01*
X0026638Y0097990D01*
X0026888Y0098240D01*
X0027138Y0098240D01*
X0027388Y0097990D01*
X0027388Y0097239D01*
X0027388Y0097990D02*
X0027639Y0098240D01*
X0027889Y0098240D01*
X0027388Y0098712D02*
X0027388Y0099713D01*
D14*
X0031142Y0093386D02*
X0031142Y0116614D01*
X0048858Y0116614D01*
X0048858Y0108937D01*
X0046890Y0108937D01*
X0046890Y0101063D01*
X0048858Y0101063D01*
X0048858Y0093386D01*
X0031142Y0093386D01*
X0037500Y0135000D02*
X0042500Y0135000D01*
X0045000Y0137500D01*
X0047500Y0135000D01*
X0052500Y0135000D01*
X0055000Y0137500D01*
X0057500Y0135000D01*
X0062500Y0135000D01*
X0065000Y0137500D01*
X0067500Y0135000D01*
X0072500Y0135000D01*
X0075000Y0137500D01*
X0077500Y0135000D01*
X0082500Y0135000D01*
X0085000Y0137500D01*
X0087500Y0135000D01*
X0092500Y0135000D01*
X0095000Y0137500D01*
X0097500Y0135000D01*
X0102500Y0135000D01*
X0105000Y0137500D01*
X0107500Y0135000D01*
X0112500Y0135000D01*
X0115000Y0137500D01*
X0117500Y0135000D01*
X0122500Y0135000D01*
X0125000Y0137500D01*
X0127500Y0135000D01*
X0132500Y0135000D01*
X0135000Y0137500D01*
X0137500Y0135000D01*
X0142500Y0135000D01*
X0145000Y0137500D01*
X0147500Y0135000D01*
X0152500Y0135000D01*
X0155000Y0137500D01*
X0157500Y0135000D01*
X0162500Y0135000D01*
X0165000Y0137500D01*
X0167500Y0135000D01*
X0172500Y0135000D01*
X0175000Y0137500D01*
X0177500Y0135000D01*
X0182500Y0135000D01*
X0185000Y0137500D01*
X0185000Y0142500D01*
X0182500Y0145000D01*
X0177500Y0145000D01*
X0175000Y0142500D01*
X0172500Y0145000D01*
X0167500Y0145000D01*
X0165000Y0142500D01*
X0162500Y0145000D01*
X0157500Y0145000D01*
X0155000Y0142500D01*
X0152500Y0145000D01*
X0147500Y0145000D01*
X0145000Y0142500D01*
X0142500Y0145000D01*
X0137500Y0145000D01*
X0135000Y0142500D01*
X0132500Y0145000D01*
X0127500Y0145000D01*
X0125000Y0142500D01*
X0122500Y0145000D01*
X0117500Y0145000D01*
X0115000Y0142500D01*
X0112500Y0145000D01*
X0107500Y0145000D01*
X0105000Y0142500D01*
X0102500Y0145000D01*
X0097500Y0145000D01*
X0095000Y0142500D01*
X0092500Y0145000D01*
X0087500Y0145000D01*
X0085000Y0142500D01*
X0082500Y0145000D01*
X0077500Y0145000D01*
X0075000Y0142500D01*
X0072500Y0145000D01*
X0067500Y0145000D01*
X0065000Y0142500D01*
X0062500Y0145000D01*
X0057500Y0145000D01*
X0055000Y0142500D01*
X0052500Y0145000D01*
X0047500Y0145000D01*
X0045000Y0142500D01*
X0042500Y0145000D01*
X0037500Y0145000D01*
X0035000Y0142500D01*
X0035000Y0137500D01*
X0037500Y0135000D01*
X0093309Y0110000D02*
X0096691Y0110000D01*
X0097791Y0106057D02*
X0097791Y0103943D01*
X0096691Y0100000D02*
X0093309Y0100000D01*
X0136189Y0074331D02*
X0138000Y0074331D01*
X0137080Y0075551D01*
X0138000Y0074331D02*
X0139811Y0074331D01*
X0138860Y0075551D02*
X0138100Y0074391D01*
X0153189Y0075331D02*
X0155000Y0075331D01*
X0154080Y0076551D01*
X0155000Y0075331D02*
X0156811Y0075331D01*
X0155860Y0076551D02*
X0155100Y0075391D01*
X0210630Y0065000D02*
X0261811Y0065000D01*
X0261811Y0125000D01*
X0210630Y0125000D01*
X0210630Y0065000D01*
X0214669Y0168189D02*
X0214669Y0170000D01*
X0213449Y0169080D01*
X0214669Y0170000D02*
X0214669Y0171811D01*
X0213449Y0170860D02*
X0214609Y0170100D01*
X0214669Y0178189D02*
X0214669Y0180000D01*
X0213449Y0179080D01*
X0214669Y0180000D02*
X0214669Y0181811D01*
X0213449Y0180860D02*
X0214609Y0180100D01*
X0214669Y0188189D02*
X0214669Y0190000D01*
X0213449Y0189080D01*
X0214669Y0190000D02*
X0214669Y0191811D01*
X0213449Y0190860D02*
X0214609Y0190100D01*
X0185000Y0197500D02*
X0182500Y0195000D01*
X0177500Y0195000D01*
X0175000Y0197500D01*
X0172500Y0195000D01*
X0167500Y0195000D01*
X0165000Y0197500D01*
X0162500Y0195000D01*
X0157500Y0195000D01*
X0155000Y0197500D01*
X0152500Y0195000D01*
X0147500Y0195000D01*
X0145000Y0197500D01*
X0142500Y0195000D01*
X0137500Y0195000D01*
X0135000Y0197500D01*
X0132500Y0195000D01*
X0127500Y0195000D01*
X0125000Y0197500D01*
X0122500Y0195000D01*
X0117500Y0195000D01*
X0115000Y0197500D01*
X0112500Y0195000D01*
X0107500Y0195000D01*
X0105000Y0197500D01*
X0102500Y0195000D01*
X0097500Y0195000D01*
X0095000Y0197500D01*
X0092500Y0195000D01*
X0087500Y0195000D01*
X0085000Y0197500D01*
X0082500Y0195000D01*
X0077500Y0195000D01*
X0075000Y0197500D01*
X0072500Y0195000D01*
X0067500Y0195000D01*
X0065000Y0197500D01*
X0062500Y0195000D01*
X0057500Y0195000D01*
X0055000Y0197500D01*
X0052500Y0195000D01*
X0047500Y0195000D01*
X0045000Y0197500D01*
X0042500Y0195000D01*
X0037500Y0195000D01*
X0035000Y0197500D01*
X0035000Y0202500D01*
X0037500Y0205000D01*
X0042500Y0205000D01*
X0045000Y0202500D01*
X0047500Y0205000D01*
X0052500Y0205000D01*
X0055000Y0202500D01*
X0057500Y0205000D01*
X0062500Y0205000D01*
X0065000Y0202500D01*
X0067500Y0205000D01*
X0072500Y0205000D01*
X0075000Y0202500D01*
X0077500Y0205000D01*
X0082500Y0205000D01*
X0085000Y0202500D01*
X0087500Y0205000D01*
X0092500Y0205000D01*
X0095000Y0202500D01*
X0097500Y0205000D01*
X0102500Y0205000D01*
X0105000Y0202500D01*
X0107500Y0205000D01*
X0112500Y0205000D01*
X0115000Y0202500D01*
X0117500Y0205000D01*
X0122500Y0205000D01*
X0125000Y0202500D01*
X0127500Y0205000D01*
X0132500Y0205000D01*
X0135000Y0202500D01*
X0137500Y0205000D01*
X0142500Y0205000D01*
X0145000Y0202500D01*
X0147500Y0205000D01*
X0152500Y0205000D01*
X0155000Y0202500D01*
X0157500Y0205000D01*
X0162500Y0205000D01*
X0165000Y0202500D01*
X0167500Y0205000D01*
X0172500Y0205000D01*
X0175000Y0202500D01*
X0177500Y0205000D01*
X0182500Y0205000D01*
X0185000Y0202500D01*
X0185000Y0197500D01*
D15*
X0193228Y0111890D02*
X0169606Y0111890D01*
X0169606Y0078031D01*
X0193228Y0078031D01*
X0193228Y0111890D01*
X0172517Y0108346D02*
X0172519Y0108421D01*
X0172525Y0108496D01*
X0172535Y0108570D01*
X0172549Y0108644D01*
X0172566Y0108717D01*
X0172588Y0108788D01*
X0172613Y0108859D01*
X0172642Y0108928D01*
X0172674Y0108996D01*
X0172710Y0109061D01*
X0172750Y0109125D01*
X0172793Y0109187D01*
X0172839Y0109246D01*
X0172888Y0109303D01*
X0172940Y0109357D01*
X0172994Y0109408D01*
X0173052Y0109456D01*
X0173111Y0109501D01*
X0173174Y0109543D01*
X0173238Y0109582D01*
X0173304Y0109617D01*
X0173372Y0109649D01*
X0173442Y0109677D01*
X0173512Y0109701D01*
X0173585Y0109722D01*
X0173658Y0109738D01*
X0173732Y0109751D01*
X0173806Y0109760D01*
X0173881Y0109765D01*
X0173956Y0109766D01*
X0174031Y0109763D01*
X0174105Y0109756D01*
X0174179Y0109745D01*
X0174253Y0109730D01*
X0174326Y0109712D01*
X0174397Y0109689D01*
X0174467Y0109663D01*
X0174536Y0109633D01*
X0174603Y0109600D01*
X0174669Y0109563D01*
X0174732Y0109523D01*
X0174793Y0109479D01*
X0174851Y0109432D01*
X0174907Y0109383D01*
X0174961Y0109330D01*
X0175011Y0109275D01*
X0175059Y0109217D01*
X0175103Y0109156D01*
X0175144Y0109094D01*
X0175182Y0109029D01*
X0175216Y0108962D01*
X0175247Y0108894D01*
X0175274Y0108824D01*
X0175298Y0108753D01*
X0175317Y0108680D01*
X0175333Y0108607D01*
X0175345Y0108533D01*
X0175353Y0108458D01*
X0175357Y0108383D01*
X0175357Y0108309D01*
X0175353Y0108234D01*
X0175345Y0108159D01*
X0175333Y0108085D01*
X0175317Y0108012D01*
X0175298Y0107939D01*
X0175274Y0107868D01*
X0175247Y0107798D01*
X0175216Y0107730D01*
X0175182Y0107663D01*
X0175144Y0107598D01*
X0175103Y0107536D01*
X0175059Y0107475D01*
X0175011Y0107417D01*
X0174961Y0107362D01*
X0174907Y0107309D01*
X0174851Y0107260D01*
X0174793Y0107213D01*
X0174732Y0107169D01*
X0174669Y0107129D01*
X0174603Y0107092D01*
X0174536Y0107059D01*
X0174467Y0107029D01*
X0174397Y0107003D01*
X0174326Y0106980D01*
X0174253Y0106962D01*
X0174179Y0106947D01*
X0174105Y0106936D01*
X0174031Y0106929D01*
X0173956Y0106926D01*
X0173881Y0106927D01*
X0173806Y0106932D01*
X0173732Y0106941D01*
X0173658Y0106954D01*
X0173585Y0106970D01*
X0173512Y0106991D01*
X0173442Y0107015D01*
X0173372Y0107043D01*
X0173304Y0107075D01*
X0173238Y0107110D01*
X0173174Y0107149D01*
X0173111Y0107191D01*
X0173052Y0107236D01*
X0172994Y0107284D01*
X0172940Y0107335D01*
X0172888Y0107389D01*
X0172839Y0107446D01*
X0172793Y0107505D01*
X0172750Y0107567D01*
X0172710Y0107631D01*
X0172674Y0107696D01*
X0172642Y0107764D01*
X0172613Y0107833D01*
X0172588Y0107904D01*
X0172566Y0107975D01*
X0172549Y0108048D01*
X0172535Y0108122D01*
X0172525Y0108196D01*
X0172519Y0108271D01*
X0172517Y0108346D01*
X0125000Y0095000D02*
X0125000Y0055000D01*
X0055000Y0055000D01*
X0055000Y0095000D01*
X0125000Y0095000D01*
X0065576Y0147450D02*
X0062574Y0147450D01*
X0065576Y0150453D01*
X0065576Y0151203D01*
X0064825Y0151954D01*
X0063324Y0151954D01*
X0062574Y0151203D01*
X0060972Y0151203D02*
X0059471Y0149702D01*
X0059471Y0147450D01*
X0059471Y0149702D02*
X0057970Y0151203D01*
X0057970Y0151954D01*
X0056368Y0151203D02*
X0055618Y0151954D01*
X0054116Y0151954D01*
X0053366Y0151203D01*
X0053366Y0150453D01*
X0054116Y0149702D01*
X0055618Y0149702D01*
X0056368Y0148951D01*
X0056368Y0148201D01*
X0055618Y0147450D01*
X0054116Y0147450D01*
X0053366Y0148201D01*
X0051764Y0147450D02*
X0048762Y0151954D01*
X0048762Y0147450D01*
X0047160Y0147450D02*
X0044158Y0147450D01*
X0044158Y0151954D01*
X0047160Y0151954D01*
X0045659Y0149702D02*
X0044158Y0149702D01*
X0042556Y0151954D02*
X0039554Y0151954D01*
X0039554Y0147450D01*
X0042556Y0147450D01*
X0041055Y0149702D02*
X0039554Y0149702D01*
X0037953Y0151954D02*
X0034950Y0151954D01*
X0036451Y0151954D02*
X0036451Y0147450D01*
X0051764Y0147450D02*
X0051764Y0151954D01*
X0060972Y0151954D02*
X0060972Y0151203D01*
X0059471Y0207450D02*
X0059471Y0209702D01*
X0060972Y0211203D01*
X0060972Y0211954D01*
X0062574Y0210453D02*
X0064075Y0211954D01*
X0064075Y0207450D01*
X0062574Y0207450D02*
X0065576Y0207450D01*
X0059471Y0209702D02*
X0057970Y0211203D01*
X0057970Y0211954D01*
X0056368Y0211203D02*
X0055618Y0211954D01*
X0054116Y0211954D01*
X0053366Y0211203D01*
X0053366Y0210453D01*
X0054116Y0209702D01*
X0055618Y0209702D01*
X0056368Y0208951D01*
X0056368Y0208201D01*
X0055618Y0207450D01*
X0054116Y0207450D01*
X0053366Y0208201D01*
X0051764Y0207450D02*
X0051764Y0211954D01*
X0048762Y0211954D02*
X0048762Y0207450D01*
X0047160Y0207450D02*
X0044158Y0207450D01*
X0044158Y0211954D01*
X0047160Y0211954D01*
X0048762Y0211954D02*
X0051764Y0207450D01*
X0045659Y0209702D02*
X0044158Y0209702D01*
X0042556Y0211954D02*
X0039554Y0211954D01*
X0039554Y0207450D01*
X0042556Y0207450D01*
X0041055Y0209702D02*
X0039554Y0209702D01*
X0037953Y0211954D02*
X0034950Y0211954D01*
X0036451Y0211954D02*
X0036451Y0207450D01*
D16*
X0043297Y0226167D02*
X0044999Y0226167D01*
X0044431Y0227301D01*
X0044431Y0227868D01*
X0044999Y0228435D01*
X0046133Y0228435D01*
X0046700Y0227868D01*
X0046700Y0226734D01*
X0046133Y0226167D01*
X0043297Y0226167D02*
X0043297Y0228435D01*
X0053297Y0227868D02*
X0054999Y0226167D01*
X0054999Y0228435D01*
X0056700Y0227868D02*
X0053297Y0227868D01*
X0063297Y0227868D02*
X0063297Y0226734D01*
X0063864Y0226167D01*
X0064999Y0227301D02*
X0064999Y0227868D01*
X0065566Y0228435D01*
X0066133Y0228435D01*
X0066700Y0227868D01*
X0066700Y0226734D01*
X0066133Y0226167D01*
X0064999Y0227868D02*
X0064431Y0228435D01*
X0063864Y0228435D01*
X0063297Y0227868D01*
X0073297Y0227868D02*
X0073297Y0226734D01*
X0073864Y0226167D01*
X0073297Y0227868D02*
X0073864Y0228435D01*
X0074431Y0228435D01*
X0076700Y0226167D01*
X0076700Y0228435D01*
X0083297Y0227301D02*
X0086700Y0227301D01*
X0086700Y0226167D02*
X0086700Y0228435D01*
X0084431Y0226167D02*
X0083297Y0227301D01*
X0093297Y0226734D02*
X0093297Y0227868D01*
X0093864Y0228435D01*
X0096133Y0226167D01*
X0096700Y0226734D01*
X0096700Y0227868D01*
X0096133Y0228435D01*
X0093864Y0228435D01*
X0093297Y0226734D02*
X0093864Y0226167D01*
X0096133Y0226167D01*
X0113297Y0226167D02*
X0116700Y0228435D01*
X0113297Y0228435D01*
X0113297Y0226167D02*
X0116700Y0226167D01*
X0116700Y0224846D02*
X0116700Y0223711D01*
X0116700Y0224279D02*
X0113297Y0224279D01*
X0113297Y0224846D02*
X0113297Y0223711D01*
X0113297Y0222297D02*
X0115566Y0222297D01*
X0116700Y0221163D01*
X0115566Y0220028D01*
X0113297Y0220028D01*
X0123297Y0220502D02*
X0123297Y0219368D01*
X0123864Y0218801D01*
X0126133Y0218801D01*
X0126700Y0219368D01*
X0126700Y0220502D01*
X0126133Y0221069D01*
X0124999Y0221069D01*
X0124999Y0219935D01*
X0123864Y0221069D02*
X0123297Y0220502D01*
X0123297Y0222484D02*
X0126700Y0224752D01*
X0123297Y0224752D01*
X0123297Y0226167D02*
X0123297Y0227868D01*
X0123864Y0228435D01*
X0126133Y0228435D01*
X0126700Y0227868D01*
X0126700Y0226167D01*
X0123297Y0226167D01*
X0123297Y0222484D02*
X0126700Y0222484D01*
X0133297Y0222484D02*
X0136700Y0224752D01*
X0133297Y0224752D01*
X0133297Y0226167D02*
X0133297Y0227868D01*
X0133864Y0228435D01*
X0136133Y0228435D01*
X0136700Y0227868D01*
X0136700Y0226167D01*
X0133297Y0226167D01*
X0133297Y0222484D02*
X0136700Y0222484D01*
X0136133Y0221069D02*
X0134999Y0221069D01*
X0134999Y0219935D01*
X0136133Y0221069D02*
X0136700Y0220502D01*
X0136700Y0219368D01*
X0136133Y0218801D01*
X0133864Y0218801D01*
X0133297Y0219368D01*
X0133297Y0220502D01*
X0133864Y0221069D01*
X0143297Y0222484D02*
X0144999Y0222484D01*
X0144431Y0223618D01*
X0144431Y0224185D01*
X0144999Y0224752D01*
X0146133Y0224752D01*
X0146700Y0224185D01*
X0146700Y0223051D01*
X0146133Y0222484D01*
X0144999Y0221069D02*
X0144999Y0218801D01*
X0146133Y0219935D02*
X0143864Y0219935D01*
X0143297Y0222484D02*
X0143297Y0224752D01*
X0143297Y0226167D02*
X0145566Y0226167D01*
X0146700Y0227301D01*
X0145566Y0228435D01*
X0143297Y0228435D01*
X0153297Y0228435D02*
X0155566Y0228435D01*
X0156700Y0227301D01*
X0155566Y0226167D01*
X0153297Y0226167D01*
X0153864Y0224752D02*
X0154431Y0224752D01*
X0154999Y0224185D01*
X0155566Y0224752D01*
X0156133Y0224752D01*
X0156700Y0224185D01*
X0156700Y0223051D01*
X0156133Y0222484D01*
X0156133Y0221209D02*
X0156700Y0221209D01*
X0156700Y0220642D01*
X0156133Y0220642D01*
X0156133Y0221209D01*
X0156133Y0219228D02*
X0156700Y0218660D01*
X0156700Y0217526D01*
X0156133Y0216959D01*
X0154999Y0218093D02*
X0154999Y0218660D01*
X0155566Y0219228D01*
X0156133Y0219228D01*
X0154999Y0218660D02*
X0154431Y0219228D01*
X0153864Y0219228D01*
X0153297Y0218660D01*
X0153297Y0217526D01*
X0153864Y0216959D01*
X0154999Y0215544D02*
X0154999Y0213276D01*
X0156133Y0214410D02*
X0153864Y0214410D01*
X0163297Y0218801D02*
X0163297Y0220502D01*
X0163864Y0221069D01*
X0164999Y0221069D01*
X0165566Y0220502D01*
X0165566Y0218801D01*
X0165566Y0219935D02*
X0166700Y0221069D01*
X0166133Y0222484D02*
X0166700Y0223051D01*
X0166700Y0224185D01*
X0166133Y0224752D01*
X0165566Y0224752D01*
X0164999Y0224185D01*
X0164999Y0223051D01*
X0164431Y0222484D01*
X0163864Y0222484D01*
X0163297Y0223051D01*
X0163297Y0224185D01*
X0163864Y0224752D01*
X0163297Y0226167D02*
X0163297Y0228435D01*
X0163297Y0227301D02*
X0166700Y0227301D01*
X0173297Y0226167D02*
X0173297Y0228435D01*
X0174999Y0227301D02*
X0174999Y0226167D01*
X0176700Y0226167D02*
X0173297Y0226167D01*
X0173297Y0224752D02*
X0173297Y0222484D01*
X0176700Y0222484D01*
X0176700Y0224752D01*
X0174999Y0223618D02*
X0174999Y0222484D01*
X0174999Y0221069D02*
X0173864Y0221069D01*
X0173297Y0220502D01*
X0173297Y0218801D01*
X0176700Y0218801D01*
X0175566Y0218801D02*
X0175566Y0220502D01*
X0174999Y0221069D01*
X0175566Y0219935D02*
X0176700Y0221069D01*
X0176133Y0217386D02*
X0173864Y0217386D01*
X0173297Y0216819D01*
X0173297Y0215685D01*
X0173864Y0215117D01*
X0176133Y0215117D01*
X0176700Y0215685D01*
X0176700Y0216819D01*
X0176133Y0217386D01*
X0176700Y0213796D02*
X0176700Y0212662D01*
X0176700Y0213229D02*
X0173297Y0213229D01*
X0173297Y0212662D02*
X0173297Y0213796D01*
X0166700Y0218801D02*
X0163297Y0218801D01*
X0154999Y0223618D02*
X0154999Y0224185D01*
X0153864Y0224752D02*
X0153297Y0224185D01*
X0153297Y0223051D01*
X0153864Y0222484D01*
X0198297Y0063618D02*
X0198297Y0061349D01*
X0201700Y0061349D01*
X0201700Y0059935D02*
X0201700Y0057666D01*
X0198297Y0057666D01*
X0198297Y0059935D01*
X0199999Y0058801D02*
X0199999Y0057666D01*
X0199999Y0056252D02*
X0198864Y0056252D01*
X0198297Y0055685D01*
X0198297Y0053983D01*
X0201700Y0053983D01*
X0200566Y0053983D02*
X0200566Y0055685D01*
X0199999Y0056252D01*
X0200566Y0055117D02*
X0201700Y0056252D01*
X0201700Y0052569D02*
X0199431Y0052569D01*
X0198297Y0051434D01*
X0199431Y0050300D01*
X0201700Y0050300D01*
X0199999Y0050300D02*
X0199999Y0052569D01*
X0208297Y0052001D02*
X0208297Y0050867D01*
X0208864Y0050300D01*
X0209431Y0050300D01*
X0209999Y0050867D01*
X0209999Y0052001D01*
X0210566Y0052569D01*
X0211133Y0052569D01*
X0211700Y0052001D01*
X0211700Y0050867D01*
X0211133Y0050300D01*
X0208864Y0052569D02*
X0208297Y0052001D01*
X0208297Y0053983D02*
X0208297Y0055685D01*
X0208864Y0056252D01*
X0211133Y0056252D01*
X0211700Y0055685D01*
X0211700Y0053983D01*
X0208297Y0053983D01*
X0209431Y0057666D02*
X0208297Y0058801D01*
X0209431Y0059935D01*
X0211700Y0059935D01*
X0209999Y0059935D02*
X0209999Y0057666D01*
X0209431Y0057666D02*
X0211700Y0057666D01*
X0218297Y0057666D02*
X0221700Y0057666D01*
X0221700Y0059935D01*
X0221133Y0056252D02*
X0221700Y0055685D01*
X0221700Y0054550D01*
X0221133Y0053983D01*
X0218864Y0053983D01*
X0218297Y0054550D01*
X0218297Y0055685D01*
X0218864Y0056252D01*
X0218864Y0052569D02*
X0218297Y0052001D01*
X0218297Y0050867D01*
X0218864Y0050300D01*
X0219431Y0050300D01*
X0219999Y0050867D01*
X0219999Y0052001D01*
X0220566Y0052569D01*
X0221133Y0052569D01*
X0221700Y0052001D01*
X0221700Y0050867D01*
X0221133Y0050300D01*
X0199999Y0061349D02*
X0199999Y0062484D01*
X0191700Y0059368D02*
X0191700Y0057666D01*
X0188297Y0057666D01*
X0188297Y0059368D01*
X0188864Y0059935D01*
X0191133Y0059935D01*
X0191700Y0059368D01*
X0191700Y0056252D02*
X0188297Y0056252D01*
X0188297Y0053983D02*
X0191700Y0056252D01*
X0191700Y0053983D02*
X0188297Y0053983D01*
X0188864Y0052569D02*
X0188297Y0052001D01*
X0188297Y0050867D01*
X0188864Y0050300D01*
X0191133Y0050300D01*
X0191700Y0050867D01*
X0191700Y0052001D01*
X0191133Y0052569D01*
X0189999Y0052569D01*
X0189999Y0051434D01*
X0181700Y0051434D02*
X0178297Y0051434D01*
X0179431Y0050300D01*
X0181700Y0050300D02*
X0181700Y0052569D01*
X0181133Y0053983D02*
X0181700Y0054550D01*
X0181700Y0055685D01*
X0181133Y0056252D01*
X0180566Y0056252D01*
X0179999Y0055685D01*
X0179999Y0055117D01*
X0179999Y0055685D02*
X0179431Y0056252D01*
X0178864Y0056252D01*
X0178297Y0055685D01*
X0178297Y0054550D01*
X0178864Y0053983D01*
X0171700Y0053983D02*
X0169431Y0056252D01*
X0168864Y0056252D01*
X0168297Y0055685D01*
X0168297Y0054550D01*
X0168864Y0053983D01*
X0168297Y0051434D02*
X0171700Y0051434D01*
X0171700Y0050300D02*
X0171700Y0052569D01*
X0171700Y0053983D02*
X0171700Y0056252D01*
X0168297Y0051434D02*
X0169431Y0050300D01*
X0161700Y0050300D02*
X0161700Y0052569D01*
X0161700Y0051434D02*
X0158297Y0051434D01*
X0159431Y0050300D01*
X0159431Y0053983D02*
X0158297Y0055117D01*
X0161700Y0055117D01*
X0161700Y0053983D02*
X0161700Y0056252D01*
X0151700Y0055685D02*
X0151700Y0054550D01*
X0151133Y0053983D01*
X0148864Y0056252D01*
X0151133Y0056252D01*
X0151700Y0055685D01*
X0151133Y0053983D02*
X0148864Y0053983D01*
X0148297Y0054550D01*
X0148297Y0055685D01*
X0148864Y0056252D01*
X0151700Y0052569D02*
X0151700Y0050300D01*
X0151700Y0051434D02*
X0148297Y0051434D01*
X0149431Y0050300D01*
X0141700Y0050867D02*
X0141700Y0052001D01*
X0141133Y0052569D01*
X0138864Y0052569D01*
X0138297Y0052001D01*
X0138297Y0050867D01*
X0138864Y0050300D01*
X0139431Y0050300D01*
X0139999Y0050867D01*
X0139999Y0052569D01*
X0141700Y0050867D02*
X0141133Y0050300D01*
X0131700Y0050867D02*
X0131133Y0050300D01*
X0130566Y0050300D01*
X0129999Y0050867D01*
X0129999Y0052001D01*
X0130566Y0052569D01*
X0131133Y0052569D01*
X0131700Y0052001D01*
X0131700Y0050867D01*
X0129999Y0050867D02*
X0129431Y0050300D01*
X0128864Y0050300D01*
X0128297Y0050867D01*
X0128297Y0052001D01*
X0128864Y0052569D01*
X0129431Y0052569D01*
X0129999Y0052001D01*
X0116700Y0050300D02*
X0116133Y0050300D01*
X0113864Y0052569D01*
X0113297Y0052569D01*
X0113297Y0050300D01*
X0106700Y0050867D02*
X0106700Y0052001D01*
X0106133Y0052569D01*
X0105566Y0052569D01*
X0104999Y0052001D01*
X0104999Y0050300D01*
X0106133Y0050300D01*
X0106700Y0050867D01*
X0104999Y0050300D02*
X0103864Y0051434D01*
X0103297Y0052569D01*
X0096700Y0052001D02*
X0096700Y0050867D01*
X0096133Y0050300D01*
X0094999Y0050300D02*
X0094431Y0051434D01*
X0094431Y0052001D01*
X0094999Y0052569D01*
X0096133Y0052569D01*
X0096700Y0052001D01*
X0094999Y0050300D02*
X0093297Y0050300D01*
X0093297Y0052569D01*
X0086700Y0052001D02*
X0083297Y0052001D01*
X0084999Y0050300D01*
X0084999Y0052569D01*
X0076700Y0052001D02*
X0076700Y0050867D01*
X0076133Y0050300D01*
X0074999Y0051434D02*
X0074999Y0052001D01*
X0075566Y0052569D01*
X0076133Y0052569D01*
X0076700Y0052001D01*
X0074999Y0052001D02*
X0074431Y0052569D01*
X0073864Y0052569D01*
X0073297Y0052001D01*
X0073297Y0050867D01*
X0073864Y0050300D01*
X0066700Y0050300D02*
X0064431Y0052569D01*
X0063864Y0052569D01*
X0063297Y0052001D01*
X0063297Y0050867D01*
X0063864Y0050300D01*
X0066700Y0050300D02*
X0066700Y0052569D01*
X0056700Y0051434D02*
X0053297Y0051434D01*
X0053297Y0050300D02*
X0053297Y0052569D01*
X0053297Y0053983D02*
X0056700Y0056252D01*
X0056700Y0053983D02*
X0053297Y0056252D01*
X0046700Y0056252D02*
X0043297Y0053983D01*
X0043864Y0052569D02*
X0044999Y0052569D01*
X0045566Y0052001D01*
X0045566Y0050300D01*
X0046700Y0050300D02*
X0043297Y0050300D01*
X0043297Y0052001D01*
X0043864Y0052569D01*
X0045566Y0051434D02*
X0046700Y0052569D01*
X0046700Y0053983D02*
X0043297Y0056252D01*
D17*
X0091000Y0111300D03*
M02*
