G75*
%MOIN*%
%OFA0B0*%
%FSLAX25Y25*%
%IPPOS*%
%LPD*%
%AMOC8*
5,1,8,0,0,1.08239X$1,22.5*
%
%ADD10C,0.07400*%
%ADD11R,0.07400X0.07400*%
%ADD12C,0.06299*%
%ADD13C,0.01600*%
%ADD14C,0.04362*%
%ADD15C,0.01200*%
D10*
X0045000Y0045000D03*
X0055000Y0045000D03*
X0065000Y0045000D03*
X0075000Y0045000D03*
X0085000Y0045000D03*
X0095000Y0045000D03*
X0105000Y0045000D03*
X0115000Y0045000D03*
X0130000Y0045000D03*
X0140000Y0045000D03*
X0150000Y0045000D03*
X0160000Y0045000D03*
X0170000Y0045000D03*
X0180000Y0045000D03*
X0190000Y0045000D03*
X0200000Y0045000D03*
X0210000Y0045000D03*
X0220000Y0045000D03*
X0215000Y0082500D03*
X0225000Y0087500D03*
X0215000Y0092500D03*
X0225000Y0097500D03*
X0215000Y0102500D03*
X0225000Y0107500D03*
X0215000Y0112500D03*
X0180000Y0140000D03*
X0170000Y0140000D03*
X0160000Y0140000D03*
X0150000Y0140000D03*
X0140000Y0140000D03*
X0130000Y0140000D03*
X0120000Y0140000D03*
X0110000Y0140000D03*
X0100000Y0140000D03*
X0090000Y0140000D03*
X0080000Y0140000D03*
X0070000Y0140000D03*
X0060000Y0140000D03*
X0050000Y0140000D03*
X0040000Y0140000D03*
X0040000Y0200000D03*
X0050000Y0200000D03*
X0060000Y0200000D03*
X0070000Y0200000D03*
X0080000Y0200000D03*
X0090000Y0200000D03*
X0100000Y0200000D03*
X0110000Y0200000D03*
X0120000Y0200000D03*
X0130000Y0200000D03*
X0140000Y0200000D03*
X0150000Y0200000D03*
X0160000Y0200000D03*
X0170000Y0200000D03*
X0180000Y0200000D03*
X0175000Y0235000D03*
X0165000Y0235000D03*
X0155000Y0235000D03*
X0145000Y0235000D03*
X0135000Y0235000D03*
X0125000Y0235000D03*
X0115000Y0235000D03*
X0095000Y0235000D03*
X0085000Y0235000D03*
X0075000Y0235000D03*
X0065000Y0235000D03*
X0055000Y0235000D03*
X0045000Y0235000D03*
X0185000Y0235000D03*
D11*
X0225000Y0077500D03*
D12*
X0042165Y0101063D03*
X0042165Y0108937D03*
D13*
X0120000Y0105000D02*
X0135000Y0105000D01*
X0150000Y0120000D01*
X0040000Y0200000D02*
X0040000Y0205000D01*
X0045000Y0210000D01*
X0140000Y0210000D01*
X0155000Y0225000D01*
X0155000Y0235000D01*
D14*
X0115000Y0130000D03*
X0130000Y0125000D03*
X0150000Y0120000D03*
X0120000Y0105000D03*
X0185500Y0101500D03*
X0205000Y0105000D03*
X0205000Y0091500D03*
D15*
X0200000Y0096500D01*
X0200000Y0108000D01*
X0201000Y0109000D01*
X0209000Y0109000D01*
X0210500Y0107500D01*
X0225000Y0107500D01*
X0215000Y0112500D02*
X0188000Y0112500D01*
X0185500Y0110000D01*
X0185500Y0101500D01*
X0205000Y0102500D02*
X0215000Y0092500D01*
X0205000Y0102500D02*
X0205000Y0105000D01*
X0130000Y0125000D02*
X0065000Y0125000D01*
X0050000Y0140000D01*
X0090000Y0140000D02*
X0100000Y0130000D01*
X0115000Y0130000D01*
M02*
